<svg xmlns="http://www.w3.org/2000/svg" viewBox="0 0 1400 860" role="img" aria-labelledby="t d"><title id="t">Comparison of preserved normative-computation runs</title><desc id="d">A schematic comparing rankings across multiple runs, representations, and model conditions.</desc><rect width="1400" height="860" fill="#f7f8fa"/><rect x="55" y="45" width="1290" height="770" rx="22" fill="#fff" stroke="#d9dde3"/><g font-family="Arial,sans-serif"><text x="95" y="103" font-size="28" font-weight="700" fill="#181817">Compare runs</text><text x="95" y="136" font-size="15" fill="#66635e">Persistent executions make model, representation, and aggregation choices inspectable experimental conditions.</text><rect x="95" y="175" width="1210" height="74" rx="12" fill="#f4f2ed" stroke="#e2dfd8"/><text x="120" y="205" font-size="13" font-weight="700" fill="#6d4aff">FILTERS</text><text x="120" y="232" font-size="14" fill="#66635e">Case M004 · concise vs detailed · provider/model · aggregation rule · repeat</text><g><rect x="95" y="290" width="370" height="430" rx="14" fill="#fafafa" stroke="#dfe2e7"/><text x="120" y="330" font-size="13" font-weight="700" fill="#6d4aff">RUN A</text><text x="120" y="358" font-size="14" fill="#66635e">Model α · concise · repeat 1</text><text x="120" y="402" font-size="12" fill="#99958d">RANK</text><text x="180" y="402" font-size="12" fill="#99958d">POLICY</text><text x="390" y="402" text-anchor="end" font-size="12" fill="#99958d">SCORE</text><rect x="120" y="425" width="320" height="58" rx="9" fill="#f1edff"/><text x="142" y="460" font-size="15" font-weight="700" fill="#6d4aff">1</text><text x="180" y="460" font-size="14" fill="#181817">Expert policy</text><text x="414" y="460" text-anchor="end" font-size="14" fill="#181817">0.82</text><rect x="120" y="495" width="320" height="58" rx="9" fill="#fff" stroke="#e5e2db"/><text x="142" y="530" font-size="15" font-weight="700" fill="#777">2</text><text x="180" y="530" font-size="14" fill="#181817">Framework policy</text><text x="414" y="530" text-anchor="end" font-size="14" fill="#181817">0.74</text><rect x="120" y="565" width="320" height="58" rx="9" fill="#fff" stroke="#e5e2db"/><text x="142" y="600" font-size="15" font-weight="700" fill="#777">3</text><text x="180" y="600" font-size="14" fill="#181817">Public policy</text><text x="414" y="600" text-anchor="end" font-size="14" fill="#181817">0.58</text></g><g><rect x="515" y="290" width="370" height="430" rx="14" fill="#fafafa" stroke="#dfe2e7"/><text x="540" y="330" font-size="13" font-weight="700" fill="#185fa5">RUN B</text><text x="540" y="358" font-size="14" fill="#66635e">Model α · detailed · repeat 1</text><text x="540" y="402" font-size="12" fill="#99958d">RANK</text><text x="600" y="402" font-size="12" fill="#99958d">POLICY</text><text x="810" y="402" text-anchor="end" font-size="12" fill="#99958d">SCORE</text><rect x="540" y="425" width="320" height="58" rx="9" fill="#eaf3fb"/><text x="562" y="460" font-size="15" font-weight="700" fill="#185fa5">1</text><text x="600" y="460" font-size="14" fill="#181817">Framework policy</text><text x="834" y="460" text-anchor="end" font-size="14" fill="#181817">0.79</text><rect x="540" y="495" width="320" height="58" rx="9" fill="#fff" stroke="#e5e2db"/><text x="562" y="530" font-size="15" font-weight="700" fill="#777">2</text><text x="600" y="530" font-size="14" fill="#181817">Expert policy</text><text x="834" y="530" text-anchor="end" font-size="14" fill="#181817">0.76</text><rect x="540" y="565" width="320" height="58" rx="9" fill="#fff" stroke="#e5e2db"/><text x="562" y="600" font-size="15" font-weight="700" fill="#777">3</text><text x="600" y="600" font-size="14" fill="#181817">Public policy</text><text x="834" y="600" text-anchor="end" font-size="14" fill="#181817">0.61</text></g><g><rect x="935" y="290" width="370" height="430" rx="14" fill="#fafafa" stroke="#dfe2e7"/><text x="960" y="330" font-size="13" font-weight="700" fill="#0f6e56">RUN C</text><text x="960" y="358" font-size="14" fill="#66635e">Model β · concise · repeat 1</text><text x="960" y="402" font-size="12" fill="#99958d">RANK</text><text x="1020" y="402" font-size="12" fill="#99958d">POLICY</text><text x="1230" y="402" text-anchor="end" font-size="12" fill="#99958d">SCORE</text><rect x="960" y="425" width="320" height="58" rx="9" fill="#e8f4ef"/><text x="982" y="460" font-size="15" font-weight="700" fill="#0f6e56">1</text><text x="1020" y="460" font-size="14" fill="#181817">Expert policy</text><text x="1254" y="460" text-anchor="end" font-size="14" fill="#181817">0.84</text><rect x="960" y="495" width="320" height="58" rx="9" fill="#fff" stroke="#e5e2db"/><text x="982" y="530" font-size="15" font-weight="700" fill="#777">2</text><text x="1020" y="530" font-size="14" fill="#181817">Framework policy</text><text x="1254" y="530" text-anchor="end" font-size="14" fill="#181817">0.72</text><rect x="960" y="565" width="320" height="58" rx="9" fill="#fff" stroke="#e5e2db"/><text x="982" y="600" font-size="15" font-weight="700" fill="#777">3</text><text x="1020" y="600" font-size="14" fill="#181817">Public policy</text><text x="1254" y="600" text-anchor="end" font-size="14" fill="#181817">0.57</text></g><rect x="95" y="752" width="1210" height="42" rx="10" fill="#fff8e8" stroke="#ead4a5"/><text x="120" y="779" font-size="13" fill="#76500c">Comparison reveals variation; repeated runs are required before interpreting it as a stable model or representation effect.</text></g></svg>